<svg width="30" height="30" viewBox="0 0 30 30" fill="none" xmlns="http://www.w3.org/2000/svg">
<path fill-rule="evenodd" clip-rule="evenodd" d="M6.48568 2C5.97039 2 5.53064 2.1821 5.16643 2.54631C4.80222 2.91052 4.62012 3.35027 4.62012 3.86557V26.1344C4.62012 26.6496 4.80225 27.0893 5.16653 27.4536C5.5308 27.8179 5.97052 28 6.48568 28H23.5144C24.0295 28 24.4692 27.8179 24.8335 27.4536C25.1978 27.0893 25.3799 26.6496 25.3799 26.1344V3.86557C25.3799 3.35027 25.1978 2.91052 24.8336 2.54631C24.4694 2.1821 24.0296 2 23.5144 2L6.48568 2ZM24.2694 3.86557V26.1344C24.2694 26.6378 24.0177 26.8895 23.5144 26.8895H6.48568C5.98229 26.8895 5.73059 26.6378 5.73059 26.1344V3.86557C5.73059 3.36217 5.98229 3.11047 6.48568 3.11047L23.5144 3.11047C23.7229 3.11047 23.9008 3.18419 24.0483 3.33164C24.1957 3.47908 24.2694 3.65705 24.2694 3.86557ZM15.0001 25.9858C15.6742 25.9858 16.2207 25.4393 16.2207 24.7652C16.2207 24.091 15.6742 23.5445 15.0001 23.5445C14.3259 23.5445 13.7794 24.091 13.7794 24.7652C13.7794 25.4393 14.3259 25.9858 15.0001 25.9858Z" fill="white"/>
</svg>
