<svg width="30" height="30" viewBox="0 0 30 30" fill="none" xmlns="http://www.w3.org/2000/svg">
<path fill-rule="evenodd" clip-rule="evenodd" d="M2 23.5144C2 24.0296 2.1821 24.4694 2.54631 24.8336C2.91052 25.1978 3.35027 25.3799 3.86557 25.3799H26.1344C26.6496 25.3799 27.0893 25.1978 27.4536 24.8335C27.8179 24.4692 28 24.0295 28 23.5144V6.48568C28 5.97052 27.8179 5.5308 27.4536 5.16653C27.0893 4.80225 26.6496 4.62012 26.1344 4.62012H3.86557C3.35027 4.62012 2.91052 4.80222 2.54631 5.16643C2.1821 5.53064 2 5.97039 2 6.48568L2 23.5144ZM3.86557 5.73059H26.1344C26.6378 5.73059 26.8895 5.98229 26.8895 6.48569V23.5144C26.8895 24.0177 26.6378 24.2694 26.1344 24.2694H3.86557C3.36217 24.2694 3.11047 24.0177 3.11047 23.5144L3.11047 6.48568C3.11047 6.27717 3.18419 6.09919 3.33164 5.95175C3.47908 5.80431 3.65705 5.73059 3.86557 5.73059ZM25.9858 15.0002C25.9858 14.3261 25.4392 13.7796 24.7651 13.7796C24.0909 13.7796 23.5444 14.3261 23.5444 15.0002C23.5444 15.6744 24.0909 16.2209 24.7651 16.2209C25.4392 16.2209 25.9858 15.6744 25.9858 15.0002Z" fill="white"/>
</svg>
