<svg width="30" height="30" viewBox="0 0 30 30" fill="none" xmlns="http://www.w3.org/2000/svg">
<path fill-rule="evenodd" clip-rule="evenodd" d="M18.1937 15.7809L9.88044 24.0941C9.68613 24.2897 9.58912 24.5252 9.58942 24.8006C9.58973 25.0764 9.68749 25.3119 9.8827 25.5071C10.078 25.7024 10.3135 25.8001 10.5891 25.8001C10.8647 25.8001 11.1001 25.7024 11.2954 25.5071L20.3848 16.4178C20.7949 16.0076 21 15.5128 21 14.9334C21 14.354 20.795 13.8598 20.3849 13.4509L11.2291 4.29274C11.0362 4.09975 10.8031 4.0022 10.53 4.0001C10.257 3.99799 10.0229 4.09179 9.82765 4.28149C9.62797 4.47559 9.52708 4.71209 9.52497 4.99099C9.52287 5.26982 9.62007 5.50806 9.8166 5.70571L18.1937 14.0853C18.4281 14.3196 18.5453 14.6022 18.5453 14.9331C18.5453 15.2639 18.4281 15.5465 18.1937 15.7809Z" fill="white"/>
</svg>
