<svg width="30" height="30" viewBox="0 0 30 30" fill="none" xmlns="http://www.w3.org/2000/svg">
<path fill-rule="evenodd" clip-rule="evenodd" d="M11.8063 15.7808L20.1196 24.0941C20.3139 24.2896 20.4109 24.5251 20.4106 24.8006C20.4103 25.0763 20.3125 25.3118 20.1173 25.507C19.922 25.7024 19.6865 25.8 19.4109 25.8C19.1353 25.8 18.8999 25.7024 18.7046 25.507L9.61521 16.4177C9.20507 16.0076 9 15.5128 9 14.9333C9 14.3539 9.20504 13.8598 9.61511 13.4509L18.7709 4.29268C18.9638 4.09969 19.1969 4.00214 19.47 4.00003C19.743 3.99793 19.9771 4.09173 20.1724 4.28143C20.372 4.47553 20.4729 4.71203 20.475 4.99093C20.4771 5.26976 20.3799 5.508 20.1834 5.70565L11.8063 14.0852C11.5719 14.3196 11.4547 14.6022 11.4547 14.933C11.4547 15.2639 11.5719 15.5464 11.8063 15.7808Z" fill="white"/>
</svg>
