<svg width="30" height="30" viewBox="0 0 30 30" fill="none" xmlns="http://www.w3.org/2000/svg">
<path d="M26.5625 15C26.5625 21.3857 21.3857 26.5625 15 26.5625V28.4375C22.4214 28.4375 28.4375 22.4214 28.4375 15H26.5625ZM15 26.5625C8.61421 26.5625 3.4375 21.3857 3.4375 15H1.5625C1.5625 22.4214 7.57868 28.4375 15 28.4375V26.5625ZM3.4375 15C3.4375 8.61421 8.61421 3.4375 15 3.4375V1.5625C7.57868 1.5625 1.5625 7.57868 1.5625 15H3.4375ZM15 3.4375C21.3857 3.4375 26.5625 8.61421 26.5625 15H28.4375C28.4375 7.57868 22.4214 1.5625 15 1.5625V3.4375Z" fill="#ACEE2A"/>
<path fill-rule="evenodd" clip-rule="evenodd" d="M15 6.5625C15.5178 6.5625 15.9375 6.98223 15.9375 7.5V8.2373H16.4023C18.5001 8.2373 20.1148 10.0005 20.1148 12.0873C20.1148 12.6051 19.6951 13.0248 19.1773 13.0248C18.6596 13.0248 18.2398 12.6051 18.2398 12.0873C18.2398 10.9491 17.3796 10.1123 16.4023 10.1123H15.9375V14.33L17.835 14.9892L17.8405 14.9911C18.402 15.1902 19.0108 15.4884 19.4605 16.0621C19.9189 16.6468 20.1148 17.3907 20.1148 18.2873C20.1148 20.1647 18.6471 21.7623 16.7523 21.7623H15.9375V22.5C15.9375 23.0178 15.5178 23.4375 15 23.4375C14.4822 23.4375 14.0625 23.0178 14.0625 22.5V21.7623H13.6148C11.5171 21.7623 9.90234 19.9991 9.90234 17.9123C9.90234 17.3945 10.3221 16.9748 10.8398 16.9748C11.3576 16.9748 11.7773 17.3945 11.7773 17.9123C11.7773 19.0505 12.6376 19.8873 13.6148 19.8873H14.0625V15.6636L12.1822 15.0104L12.1766 15.0085C11.6152 14.8095 11.0064 14.5112 10.5567 13.9376C10.0983 13.3528 9.90234 12.609 9.90234 11.7123C9.90234 9.83495 11.3701 8.2373 13.2648 8.2373H14.0625V7.5C14.0625 6.98223 14.4822 6.5625 15 6.5625ZM14.0625 10.1123H13.2648C12.4846 10.1123 11.7773 10.7897 11.7773 11.7123C11.7773 12.3407 11.9126 12.6281 12.0324 12.7808C12.1604 12.9442 12.3758 13.0894 12.7995 13.2399L14.0625 13.6787V10.1123ZM15.9375 16.315V19.8873H16.7523C17.5326 19.8873 18.2398 19.2099 18.2398 18.2873C18.2398 17.659 18.1046 17.3716 17.9848 17.2188C17.8568 17.0554 17.6414 16.9103 17.2177 16.7597L15.9375 16.315Z" fill="white"/>
</svg>
