<svg width="30" height="30" viewBox="0 0 30 30" fill="none" xmlns="http://www.w3.org/2000/svg">
<g clip-path="url(#clip0_84_2)">
<path d="M30 15C30 14.7545 29.994 14.5092 29.9819 14.264C29.9699 14.0188 29.9518 13.774 29.9278 13.5297C29.9037 13.2854 29.8737 13.0419 29.8376 12.799C29.8016 12.5562 29.7597 12.3144 29.7118 12.0736C29.6639 11.8329 29.6101 11.5934 29.5505 11.3553C29.4908 11.1172 29.4254 10.8806 29.3541 10.6457C29.2828 10.4108 29.2059 10.1778 29.1232 9.94665C29.0405 9.71552 28.9521 9.48655 28.8582 9.25975C28.7642 9.03295 28.6648 8.80859 28.5598 8.58667C28.4549 8.36476 28.3445 8.14555 28.2288 7.92905C28.1131 7.71255 27.9921 7.49902 27.8659 7.28846C27.7397 7.0779 27.6084 6.87056 27.472 6.66645C27.3357 6.46233 27.1943 6.26169 27.0481 6.06451C26.9019 5.86733 26.7509 5.67386 26.5952 5.4841C26.4394 5.29434 26.2791 5.10851 26.1143 4.92662C25.9494 4.74472 25.7802 4.56698 25.6066 4.3934C25.433 4.21981 25.2553 4.05059 25.0734 3.88573C24.8915 3.72087 24.7057 3.56058 24.5159 3.40484C24.3261 3.24911 24.1327 3.09812 23.9355 2.95189C23.7383 2.80565 23.5377 2.66434 23.3335 2.52796C23.1294 2.39157 22.9221 2.26028 22.7115 2.13407C22.501 2.00787 22.2874 1.8869 22.0709 1.77118C21.8545 1.65546 21.6352 1.54512 21.4133 1.44016C21.1914 1.3352 20.967 1.23575 20.7402 1.14181C20.5134 1.04786 20.2845 0.959541 20.0533 0.876839C19.8222 0.794137 19.5892 0.717156 19.3543 0.645895C19.1194 0.574634 18.8828 0.509179 18.6447 0.449531C18.4066 0.389883 18.1671 0.336113 17.9264 0.288221C17.6856 0.240329 17.4438 0.198373 17.201 0.162352C16.9581 0.126332 16.7146 0.0962909 16.4703 0.0722291C16.226 0.0481672 15.9812 0.0301136 15.736 0.0180682C15.4908 0.00602272 15.2455 0 15 0C14.7545 0 14.5092 0.00602272 14.264 0.0180682C14.0188 0.0301136 13.774 0.0481672 13.5297 0.0722291C13.2854 0.0962909 13.0419 0.126332 12.799 0.162352C12.5562 0.198373 12.3144 0.240329 12.0736 0.288221C11.8329 0.336113 11.5934 0.389883 11.3553 0.449531C11.1172 0.509179 10.8806 0.574634 10.6457 0.645895C10.4108 0.717156 10.1778 0.794137 9.94665 0.876839C9.71552 0.959541 9.48655 1.04786 9.25975 1.14181C9.03295 1.23575 8.80859 1.3352 8.58667 1.44016C8.36476 1.54512 8.14555 1.65546 7.92905 1.77118C7.71255 1.8869 7.49902 2.00787 7.28846 2.13407C7.0779 2.26028 6.87056 2.39157 6.66645 2.52796C6.46233 2.66434 6.26169 2.80565 6.06451 2.95189C5.86733 3.09812 5.67386 3.24911 5.4841 3.40484C5.29434 3.56058 5.10851 3.72087 4.92662 3.88573C4.74472 4.05059 4.56698 4.21981 4.3934 4.3934C4.21981 4.56698 4.05059 4.74472 3.88573 4.92662C3.72087 5.10851 3.56058 5.29434 3.40484 5.4841C3.24911 5.67386 3.09812 5.86733 2.95189 6.06451C2.80565 6.26169 2.66434 6.46233 2.52796 6.66645C2.39157 6.87056 2.26028 7.0779 2.13407 7.28846C2.00787 7.49902 1.8869 7.71255 1.77118 7.92905C1.65546 8.14555 1.54512 8.36476 1.44016 8.58667C1.3352 8.80859 1.23575 9.03295 1.14181 9.25975C1.04786 9.48655 0.959541 9.71552 0.876839 9.94665C0.794137 10.1778 0.717156 10.4108 0.645895 10.6457C0.574634 10.8806 0.509179 11.1172 0.449531 11.3553C0.389883 11.5934 0.336113 11.8329 0.288221 12.0736C0.240329 12.3144 0.198373 12.5562 0.162352 12.799C0.126332 13.0419 0.0962909 13.2854 0.0722291 13.5297C0.0481672 13.774 0.0301136 14.0188 0.0180682 14.264C0.00602272 14.5092 0 14.7545 0 15C0 15.2455 0.00602272 15.4908 0.0180682 15.736C0.0301136 15.9812 0.0481672 16.226 0.0722291 16.4703C0.0962909 16.7146 0.126332 16.9581 0.162352 17.201C0.198373 17.4438 0.240329 17.6856 0.288221 17.9264C0.336113 18.1671 0.389883 18.4066 0.449531 18.6447C0.509179 18.8828 0.574634 19.1194 0.645895 19.3543C0.717156 19.5892 0.794137 19.8222 0.876839 20.0533C0.959541 20.2845 1.04786 20.5135 1.14181 20.7402C1.23575 20.967 1.3352 21.1914 1.44016 21.4133C1.54512 21.6352 1.65546 21.8545 1.77118 22.0709C1.8869 22.2874 2.00787 22.501 2.13407 22.7115C2.26028 22.9221 2.39157 23.1294 2.52796 23.3335C2.66434 23.5377 2.80565 23.7383 2.95189 23.9355C3.09812 24.1327 3.24911 24.3261 3.40484 24.5159C3.56058 24.7057 3.72087 24.8915 3.88573 25.0734C4.05059 25.2553 4.21981 25.433 4.3934 25.6066C4.56698 25.7802 4.74472 25.9494 4.92662 26.1143C5.10851 26.2791 5.29434 26.4394 5.4841 26.5952C5.67386 26.7509 5.86733 26.9019 6.06451 27.0481C6.26169 27.1943 6.46233 27.3357 6.66645 27.472C6.87056 27.6084 7.0779 27.7397 7.28846 27.8659C7.49902 27.9921 7.71255 28.1131 7.92905 28.2288C8.14555 28.3445 8.36476 28.4549 8.58667 28.5598C8.80859 28.6648 9.03295 28.7642 9.25975 28.8582C9.48655 28.9521 9.71552 29.0405 9.94665 29.1232C10.1778 29.2059 10.4108 29.2828 10.6457 29.3541C10.8806 29.4254 11.1172 29.4908 11.3553 29.5505C11.5934 29.6101 11.8329 29.6639 12.0736 29.7118C12.3144 29.7597 12.5562 29.8016 12.799 29.8376C13.0419 29.8737 13.2854 29.9037 13.5297 29.9278C13.774 29.9518 14.0188 29.9699 14.264 29.9819C14.5092 29.994 14.7545 30 15 30C15.2455 30 15.4908 29.994 15.736 29.9819C15.9812 29.9699 16.226 29.9518 16.4703 29.9278C16.7146 29.9037 16.9581 29.8737 17.201 29.8376C17.4438 29.8016 17.6856 29.7597 17.9264 29.7118C18.1671 29.6639 18.4066 29.6101 18.6447 29.5505C18.8828 29.4908 19.1194 29.4254 19.3543 29.3541C19.5892 29.2828 19.8222 29.2059 20.0533 29.1232C20.2845 29.0405 20.5135 28.9521 20.7402 28.8582C20.967 28.7642 21.1914 28.6648 21.4133 28.5598C21.6352 28.4549 21.8545 28.3445 22.0709 28.2288C22.2874 28.1131 22.501 27.9921 22.7115 27.8659C22.9221 27.7397 23.1294 27.6084 23.3335 27.472C23.5377 27.3357 23.7383 27.1943 23.9355 27.0481C24.1327 26.9019 24.3261 26.7509 24.5159 26.5952C24.7057 26.4394 24.8915 26.2791 25.0734 26.1143C25.2553 25.9494 25.433 25.7802 25.6066 25.6066C25.7802 25.433 25.9494 25.2553 26.1143 25.0734C26.2791 24.8915 26.4394 24.7057 26.5952 24.5159C26.7509 24.3261 26.9019 24.1327 27.0481 23.9355C27.1943 23.7383 27.3357 23.5377 27.472 23.3335C27.6084 23.1294 27.7397 22.9221 27.8659 22.7115C27.9921 22.501 28.1131 22.2874 28.2288 22.0709C28.3445 21.8545 28.4549 21.6352 28.5598 21.4133C28.6648 21.1914 28.7642 20.967 28.8582 20.7402C28.9521 20.5134 29.0405 20.2845 29.1232 20.0533C29.2059 19.8222 29.2828 19.5892 29.3541 19.3543C29.4254 19.1194 29.4908 18.8828 29.5505 18.6447C29.6101 18.4066 29.6639 18.1671 29.7118 17.9264C29.7597 17.6856 29.8016 17.4438 29.8376 17.201C29.8737 16.9581 29.9037 16.7146 29.9278 16.4703C29.9518 16.226 29.9699 15.9812 29.9819 15.736C29.994 15.4908 30 15.2455 30 15Z" fill="#FFAF40"/>
<path d="M14.7424 20.1782C14.203 20.1782 13.7637 19.7425 13.7637 19.2014V18.4577C13.7331 17.7973 13.8221 17.2118 14.0362 16.7012C14.2475 16.1906 14.6701 15.73 15.3012 15.3221H15.2762C15.8267 14.8975 16.291 14.5201 16.6692 14.1899C17.0473 13.8597 17.3225 13.5766 17.4949 13.3407C17.8091 12.9328 17.9843 12.3917 18.0148 11.7146C18.0315 11.3206 17.962 10.9654 17.8147 10.6407C17.6701 10.3272 17.4615 10.0191 17.1891 9.71389C17.1724 9.69724 17.1557 9.67782 17.139 9.66117C16.5607 9.09786 15.8211 8.81481 14.9203 8.81481C14.0556 8.81481 13.3466 9.15613 12.7961 9.84154C12.3707 10.3688 12.0871 11.1208 11.9426 12.1003C11.8675 12.6193 11.3893 12.9828 10.8694 12.9245C10.33 12.8635 9.94072 12.3778 10.0074 11.8395C10.0742 11.3012 10.1882 10.8044 10.3522 10.3466C10.6108 9.6251 10.9611 9.01461 11.4032 8.52067C11.8453 8.02673 12.3652 7.64934 12.963 7.38849C13.5607 7.13042 14.2141 7 14.9231 7C16.4189 7 17.6312 7.44122 18.5598 8.32087C19.519 9.23105 20 10.3632 20 11.7146C20 12.2169 19.9333 12.6859 19.7998 13.116C19.6664 13.5489 19.4884 13.9374 19.2688 14.2814C19.0324 14.6422 18.6849 15.0362 18.2289 15.4608C17.7729 15.8854 17.2058 16.3321 16.5301 16.8039C16.216 17.0231 16.0102 17.2395 15.9157 17.4532C15.8211 17.6641 15.7739 17.9915 15.7739 18.4328V19.2014C15.7739 19.7398 15.3374 20.1782 14.7952 20.1782L14.7424 20.1782ZM15.7766 22.201C15.7766 22.7527 15.3285 23.2 14.7757 23.2C14.2229 23.2 13.7748 22.7527 13.7748 22.201C13.7748 21.6493 14.2229 21.202 14.7757 21.202C15.3285 21.202 15.7766 21.6493 15.7766 22.201Z" fill="white"/>
</g>
<defs>
<clipPath id="clip0_84_2">
<rect width="30" height="30" fill="white"/>
</clipPath>
</defs>
</svg>
