<svg width="30" height="30" viewBox="0 0 30 30" fill="none" xmlns="http://www.w3.org/2000/svg">
<path d="M27.171 4.16528H2.82899C2.44928 4.16528 2 4.61746 2 4.99427L2.02319 21.2117C2.02319 21.5885 2.47246 22.0406 2.85217 22.0406H13.3768L12.8957 24.2725C12.7333 25.0146 12.0493 25.5044 11.3101 25.458C11.2986 25.458 11.287 25.4609 11.2725 25.4609C11.1681 25.4609 11.0841 25.545 11.0841 25.6493C11.0841 25.7305 11.1391 25.8001 11.2145 25.8233C11.2232 25.8262 11.229 25.8291 11.2377 25.8319V25.8348H18.7652V25.8319C18.7739 25.8319 18.7797 25.8291 18.7884 25.8233C18.8638 25.8001 18.9217 25.7305 18.9217 25.6493C18.9217 25.545 18.8377 25.4609 18.7333 25.4609C18.7188 25.4609 18.7101 25.4609 18.6957 25.458C17.9565 25.5044 17.2725 25.0146 17.1101 24.2725L16.6261 22.0406H27.171C27.5507 22.0406 28 21.5885 28 21.2117V4.99717C28 4.61746 27.5507 4.16528 27.171 4.16528ZM15.513 20.8667C15.4957 20.8986 15.4812 20.9305 15.4638 20.9566C15.4464 20.9856 15.429 21.0088 15.4116 21.0291C15.3942 21.0493 15.3797 21.0638 15.371 21.0754C15.3507 21.0899 15.3333 21.1044 15.313 21.116C15.2928 21.1276 15.2754 21.1305 15.2522 21.1305C15.2377 21.1305 15.2232 21.1276 15.2029 21.1218C15.1826 21.116 15.1652 21.1102 15.1449 21.1044C15.1246 21.0986 15.1043 21.0928 15.0841 21.0841C15.0638 21.0783 15.0464 21.0754 15.029 21.0754C15.0116 21.0754 14.9913 21.0783 14.971 21.0841C14.9507 21.0899 14.9275 21.0957 14.9072 21.1044C14.887 21.1102 14.8667 21.116 14.8493 21.1247C14.8319 21.1305 14.8145 21.1334 14.8029 21.1334C14.7855 21.1334 14.771 21.1305 14.7565 21.1247C14.742 21.1189 14.7246 21.1102 14.7072 21.0957C14.6899 21.0812 14.6725 21.0638 14.6551 21.0406C14.6348 21.0175 14.6145 20.9914 14.5913 20.9566C14.571 20.9247 14.5507 20.8899 14.5333 20.8551C14.5159 20.8175 14.5014 20.7798 14.487 20.7392C14.4754 20.6986 14.4638 20.6609 14.458 20.6175C14.4522 20.5769 14.4464 20.5392 14.4464 20.4986C14.4464 20.4406 14.4551 20.3856 14.4725 20.3334C14.4899 20.2841 14.5159 20.2377 14.5449 20.203C14.5768 20.1653 14.6116 20.1363 14.6522 20.116C14.6928 20.0957 14.7362 20.087 14.7855 20.087C14.8203 20.087 14.8638 20.0986 14.9101 20.116C14.9565 20.1363 14.9913 20.1479 15.0087 20.1479C15.0145 20.1479 15.0261 20.145 15.0435 20.1392C15.0609 20.1334 15.087 20.1247 15.1188 20.1131C15.1507 20.1015 15.1739 20.0957 15.1942 20.0899C15.2145 20.087 15.2319 20.0841 15.2522 20.0841C15.3072 20.0841 15.3565 20.0957 15.4029 20.1218C15.4493 20.1479 15.4899 20.1798 15.5159 20.2233C15.4638 20.2551 15.4261 20.2899 15.4029 20.3334C15.3797 20.3769 15.3681 20.429 15.3681 20.4841C15.3681 20.545 15.3826 20.6001 15.4174 20.6522C15.4493 20.7015 15.4957 20.7421 15.5507 20.7653C15.542 20.7972 15.5275 20.8319 15.513 20.8667ZM14.9971 20.0406C14.9971 20.0059 15.0058 19.974 15.0203 19.9392C15.0348 19.9044 15.0551 19.8725 15.0812 19.8464C15.1043 19.8204 15.1333 19.7972 15.1681 19.7798C15.2 19.7624 15.2348 19.7537 15.2725 19.7508C15.2754 19.7566 15.2754 19.7595 15.2754 19.7653V19.7798C15.2754 19.8146 15.2667 19.8493 15.2522 19.8841C15.2377 19.9189 15.2203 19.9508 15.1942 19.9798C15.171 20.0088 15.142 20.032 15.113 20.0464C15.0841 20.0638 15.0522 20.0725 15.0203 20.0725C15.0087 20.0725 15 20.0696 15 20.0638C14.9971 20.058 14.9971 20.0493 14.9971 20.0406ZM26.9159 18.7914H3.08406V5.24934H26.9188V18.7914H26.9159Z" fill="white"/>
</svg>
