<svg xmlns="http://www.w3.org/2000/svg" xmlns:xlink="http://www.w3.org/1999/xlink" fill="none" version="1.1" width="32" height="32" viewBox="0 0 32 32"><defs><clipPath id="master_svg0_66_3976"><rect x="0" y="0" width="32" height="32" rx="0"/></clipPath><linearGradient x1="0.5" y1="0" x2="0.5" y2="1" id="master_svg1_66_2031"><stop offset="0%" stop-color="#05B8FE" stop-opacity="1"/><stop offset="100%" stop-color="#243CB2" stop-opacity="1"/></linearGradient><linearGradient x1="0.5" y1="0.1972847729921341" x2="0.5" y2="1" id="master_svg2_66_3588"><stop offset="0%" stop-color="#5DB224" stop-opacity="1"/><stop offset="47.95858561992645%" stop-color="#B7FE05" stop-opacity="1"/><stop offset="100.00001192092896%" stop-color="#5DB224" stop-opacity="1"/></linearGradient><linearGradient x1="0" y1="0.3445529639720917" x2="1" y2="0.3445529639720917" id="master_svg3_66_3969"><stop offset="0%" stop-color="#FFAC06" stop-opacity="1"/><stop offset="100%" stop-color="#FF3D0D" stop-opacity="1"/></linearGradient><linearGradient x1="0" y1="0.3445529639720917" x2="1" y2="0.3445529639720917" id="master_svg4_66_3934"><stop offset="0%" stop-color="#FF3D0D" stop-opacity="1"/><stop offset="100%" stop-color="#FFAC06" stop-opacity="1"/></linearGradient><linearGradient x1="0" y1="0.5" x2="1" y2="0.5" id="master_svg5_66_2820"><stop offset="0%" stop-color="#B7FE05" stop-opacity="1"/><stop offset="100%" stop-color="#5DB224" stop-opacity="1"/></linearGradient></defs><g clip-path="url(#master_svg0_66_3976)"><rect x="1.462493896484375" y="9.625" width="3.125" height="12.75" rx="0" fill="url(#master_svg1_66_2031)" fill-opacity="1"/><rect x="10.649993896484375" y="9.625" width="3.125" height="12.75" rx="0" fill="url(#master_svg2_66_3588)" fill-opacity="1"/><path d="M18.224430596484375,13.8805319515625C18.361201296484374,13.4128379215625,18.571667196484377,12.9682784415625,18.841459796484376,12.5631103515625C18.732168196484373,12.990787801562501,18.655353096484376,13.4365978215625,18.763394396484376,13.8736540515625C18.886425496484375,14.6452243515625,19.407277596484377,15.3023717515625,20.059905096484375,15.7069146515625L20.060530196484375,15.7131671515625C20.705037096484375,16.1077067515625,21.430734596484374,16.3496818515625,22.170169796484373,16.4928662515625C22.906481696484377,16.6122889515625,23.642794596484375,16.7254610515625,24.381606896484374,16.8317546515625C25.233453896484377,16.9861969515625,26.110284896484373,17.1981596515625,26.811623896484377,17.7346329515625C27.410542896484372,18.1554322515625,27.779010896484372,18.9026169515625,27.705940896484375,19.6366720515625C27.637242896484373,20.0743536515625,27.456131896484376,20.5282917515625,27.104524896484374,20.8127851515625C26.539331896484377,21.356136351562498,25.806765896484375,21.703780151562498,25.058587896484376,21.909488651562498C24.508386896484375,22.1164455515625,23.912590996484376,22.1620902515625,23.333659196484376,22.238371851562498L23.329284696484375,22.242752051562498C22.819815596484375,22.2918510515625,22.307017296484375,22.285736051562502,21.795870296484374,22.2796401515625C21.721165196484375,22.2787494515625,21.646494896484377,22.2778596515625,21.571875596484375,22.2771415515625L21.513294696484376,22.2776660515625L21.513187396484376,22.2776670515625C20.764465796484373,22.2843847515625,20.013522196484374,22.2911224515625,19.266136596484376,22.275889351562498C18.438228096484373,22.2866497515625,17.610017096484377,22.284263651562497,16.781875596484376,22.281877551562502L16.781669596484374,22.281876551562497C15.925066796484375,22.2794103515625,15.068538246484374,22.2769432515625,14.212493896484375,22.2890233515625C14.272448547484375,21.770683251562502,14.347391146484375,21.2298345515625,14.629675926484374,20.7790212515625C14.882607996484374,20.3575973515625,15.298539796484375,20.0418415515625,15.766308096484375,19.8992819515625C16.018088196484374,19.8015174515625,16.287845596484374,19.8025612515625,16.555054396484376,19.8035950515625L16.555054396484376,19.8035950515625C16.636498896484376,19.8039102515625,16.717668496484375,19.8042240515625,16.798020596484374,19.8017420515625C17.059619696484376,19.8019409515625,17.321281396484373,19.8008112515625,17.582946296484376,19.7996816515625L17.583235296484375,19.7996802515625C18.144178596484373,19.7972578515625,18.705135296484375,19.7948355515625,19.265511496484375,19.8054933515625C20.242890396484377,19.794860351562498,21.222767396484375,19.7929844515625,22.199522496484377,19.8061141515625C22.417847596484375,19.7967114515625,22.636432696484377,19.796010451562502,22.855040596484375,19.7953085515625C23.116061196484374,19.7944703515625,23.377115296484376,19.7936329515625,23.637799296484374,19.7779798515625C24.053733796484373,19.7548418515625,24.422197896484377,19.6835651515625,24.828761896484373,19.5972805515625C25.088563896484374,19.5147457515625,25.384588896484374,19.4147047515625,25.530101896484375,19.1658515515625C25.660003896484376,18.9657678515625,25.591305896484375,18.6668939515625,25.384588896484374,18.5480952515625C24.998008896484375,18.2904887515625,24.520871896484373,18.227336851562498,24.071218496484377,18.1610565515625C23.239353196484373,18.0366296515625,22.401867896484376,17.9415907515625,21.578746296484375,17.762140751562498C21.263360996484373,17.7196254515625,20.962342296484376,17.6120805515625,20.659448196484377,17.5201673515625C20.186057996484376,17.3794841515625,19.714543796484374,17.1912808515625,19.326090296484374,16.8805274515625C18.520048096484373,16.2897083515625,17.879069296484374,14.9803636515625,18.224430596484375,13.8805319515625Z" fill-rule="evenodd" fill="url(#master_svg3_66_3969)" fill-opacity="1" style="mix-blend-mode:passthrough"/><path d="M28.459003407421875,9.62587524723C27.226613007421875,9.62470773378,25.994155907421874,9.6235401558,24.761949507421875,9.6306825909C24.762050607421877,9.6313718259,24.762157007421877,9.6320834057,24.762265707421875,9.6328160772C24.762155007421875,9.6320821345,24.762049207421875,9.6313691647,24.761949507421875,9.6306825909C24.347263307421876,9.68257517,23.926960507421875,9.708210811,23.522893907421874,9.81888174C22.910859807421875,9.97957399,22.286961807421875,10.140265639999999,21.718020007421874,10.41975665C21.190922307421875,10.6479756,20.704420007421874,10.9656072,20.265380107421876,11.333885C19.552798897421876,11.92788,19.074413837421876,12.8788996,19.236790269421874,13.8186646C19.337337597421875,14.4576797,19.760141077421874,15.0310426,20.322212007421875,15.3442979C20.765622007421875,15.601904399999999,21.235945207421874,15.810885899999999,21.744875907421875,15.9289188C21.906230907421875,15.9625754,22.348789007421875,16.0764847,22.656055207421876,16.116498C23.381125907421875,16.2090359,24.103699707421875,16.3284607,24.827521807421874,16.4341297C25.317771007421875,16.5072861,25.785538707421875,16.676731099999998,26.258303207421875,16.8192859C26.490000707421874,16.942462,26.756048207421877,17.029373200000002,26.977753207421877,17.1838121C27.587288807421874,17.5670962,28.100647007421877,18.1817265,28.173091907421878,18.9207821C28.173349407421874,18.9554558,28.173754707421875,18.9902048,28.174161907421876,19.0249968C28.177728607421876,19.3302279,28.181334507421873,19.638837000000002,28.083787007421876,19.931826C28.036946307421875,20.07752,27.958880407421873,20.210701,27.903297407421874,20.35201C27.751540207421876,20.590232,27.565431607421875,20.802819,27.368707607421875,21.003528C26.396326107421874,21.821362,25.127294107421875,22.210273,23.881996607421875,22.344079C24.203162207421876,22.401918000000002,24.526630907421875,22.367153000000002,24.848490207421875,22.332561C24.937202907421874,22.323027,25.025793507421874,22.313504000000002,25.114179607421875,22.305939000000002C25.801155607421876,22.198394,26.498123607421874,22.094601,27.154498107421876,21.864505L27.211328507421875,21.846377C27.732180607421874,21.66005,28.239293107421876,21.408696,28.678957907421875,21.06918C28.931886707421874,20.899736,29.162336307421874,20.68965,29.344072607421875,20.443297C29.492315607421872,20.234108,29.575346607421874,20.105789,29.686312607421875,19.905564C29.861178607421877,19.56355,29.991617607421873,19.212611199999998,30.021680607421874,18.8232422C30.058527607421873,18.359300599999997,30.024803607421873,17.8816013,29.867423607421877,17.4401689C29.647590607421876,16.7673898,29.160462407421875,16.2034059,28.575285007421876,15.8176208L28.554051407421873,15.8157449C27.964501407421874,15.3724356,27.273780807421875,15.121703100000001,26.561197307421875,14.9616446C25.957282507421876,14.8415947,25.395230307421876,14.721001600000001,24.774436907421876,14.6433864C24.011894707421874,14.5658541,23.253722707421876,14.453307599999999,22.495552307421875,14.338884400000001C22.180792107421876,14.2619772,21.861661407421874,14.1706891,21.578127407421874,14.0093722C21.576260107421874,14.0103741,21.574390207421875,14.0113697,21.572517407421874,14.0123587C21.574389207421873,14.0113664,21.576259607421875,14.0103707,21.578127407421874,14.0093722C21.446977107421876,13.8930702,21.295843607421876,13.7561388,21.290846307421873,13.5666852C21.266490907421876,13.3190823,21.392643907421874,13.0827341,21.571258507421874,12.9189174C21.899756407421876,12.631298300000001,22.327555407421876,12.4887393,22.750982007421875,12.4118323C22.950205107421876,12.370565899999999,23.153175107421873,12.344305,23.355520207421876,12.3180444C23.417795207421875,12.2986557,24.134615907421875,12.3099158,24.524319607421873,12.3111665C24.914021507421875,12.312417,25.303722907421875,12.3136673,25.693112407421875,12.3042886C26.137844107421877,12.312644,26.582829507421874,12.310364700000001,27.027746207421874,12.3080857C27.281960507421875,12.3067837,27.536151907421875,12.3054819,27.790260307421875,12.3061638C27.936698007421874,12.3118339,28.080778107421875,12.2904837,28.224875407421877,12.2691307C28.303242707421873,12.2575178,28.381614707421875,12.2459044,28.460376707421876,12.238639599999999C29.005583807421875,12.1542296,29.525812607421877,11.884117400000001,29.892408607421874,11.4695704C30.347061607421875,10.9687377,30.522551607421875,10.28345346,30.587502607421875,9.6263057792C29.878065607421874,9.6272196067,29.168545707421877,9.6265474376,28.459003407421875,9.62587524723Z" fill-rule="evenodd" fill="url(#master_svg4_66_3934)" fill-opacity="1" style="mix-blend-mode:passthrough"/><path d="M22.704396896484376,9.625L5.649993896484375,9.625L5.649993896484375,12.25L18.903101896484372,12.25C19.899863896484376,10.8507347,21.259667896484373,9.91171747,22.704396896484376,9.625Z" fill-rule="evenodd" fill="url(#master_svg5_66_2820)" fill-opacity="1"/></g></svg>