<svg xmlns="http://www.w3.org/2000/svg" xmlns:xlink="http://www.w3.org/1999/xlink" fill="none" version="1.1" width="512" height="512" viewBox="0 0 512 512"><defs><clipPath id="master_svg0_66_3973"><rect x="0" y="0" width="512" height="512" rx="0"/></clipPath><linearGradient x1="0.5" y1="0" x2="0.5" y2="1" id="master_svg1_66_2031"><stop offset="0%" stop-color="#05B8FE" stop-opacity="1"/><stop offset="100%" stop-color="#243CB2" stop-opacity="1"/></linearGradient><linearGradient x1="0.5" y1="0.1972847729921341" x2="0.5" y2="1" id="master_svg2_66_3588"><stop offset="0%" stop-color="#5DB224" stop-opacity="1"/><stop offset="47.95858561992645%" stop-color="#B7FE05" stop-opacity="1"/><stop offset="100.00001192092896%" stop-color="#5DB224" stop-opacity="1"/></linearGradient><linearGradient x1="0" y1="0.3445529639720917" x2="1" y2="0.3445529639720917" id="master_svg3_66_3969"><stop offset="0%" stop-color="#FFAC06" stop-opacity="1"/><stop offset="100%" stop-color="#FF3D0D" stop-opacity="1"/></linearGradient><linearGradient x1="0" y1="0.3445529639720917" x2="1" y2="0.3445529639720917" id="master_svg4_66_3934"><stop offset="0%" stop-color="#FF3D0D" stop-opacity="1"/><stop offset="100%" stop-color="#FFAC06" stop-opacity="1"/></linearGradient><linearGradient x1="0" y1="0.5" x2="1" y2="0.5" id="master_svg5_66_2820"><stop offset="0%" stop-color="#B7FE05" stop-opacity="1"/><stop offset="100%" stop-color="#5DB224" stop-opacity="1"/></linearGradient></defs><g clip-path="url(#master_svg0_66_3973)"><rect x="23.399993896484375" y="154" width="50" height="204" rx="0" fill="url(#master_svg1_66_2031)" fill-opacity="1"/><rect x="170.39999389648438" y="154" width="50" height="204" rx="0" fill="url(#master_svg2_66_3588)" fill-opacity="1"/><path d="M291.5909808964844,222.08909427368164C293.7793118964844,214.60599027368164,297.1467668964844,207.49303867368164,301.46344789648435,201.01034927368164C299.7147828964844,207.85318847368166,298.48574089648434,214.98614927368163,300.2144008964844,221.97904827368166C302.1828998964844,234.32417327368165,310.51653289648436,244.83853127368164,320.9585718964844,251.31121827368165L320.96857489648437,251.41125827368165C331.2806838964844,257.72389227368166,342.8918438964844,261.59549327368165,354.7228038964844,263.88644427368166C366.5038038964844,265.79720727368164,378.2848038964844,267.6079592736817,390.1058038964844,269.30865827368166C403.7353538964844,271.77973527368164,417.76464389648436,275.17113827368166,428.9860638964844,283.75471127368166C438.56877389648434,290.48749927368164,444.46426389648434,302.4424592736816,443.2951538964844,314.18733927368163C442.19598389648434,321.19023927368164,439.2982038964844,328.45324927368165,433.6724838964844,333.00514927368164C424.6294138964844,341.69876927368165,412.9083438964844,347.26106927368164,400.9375038964844,350.55239927368166C392.1342738964844,353.86370927368165,382.6015438964844,354.5940292736816,373.33863389648434,355.8145292736816L373.2686438964844,355.88461927368166C365.1171438964844,356.67019927368165,356.9123638964844,356.5723592736816,348.7340138964844,356.4748292736816C347.53873389648436,356.4605792736817,346.3440138964844,356.44633927368164,345.1501038964844,356.4348492736816L344.2128038964844,356.4432392736816L344.2110938964844,356.44325927368163C332.23154389648437,356.55073927368164,320.2164458964844,356.65853927368164,308.2582778964844,356.4148092736816C295.0117418964844,356.58697927368166,281.76036489648436,356.54879927368165,268.51010089648435,356.51061927368164L268.50680589648437,356.51060927368167C254.80116089648436,356.47114927368165,241.09670389648437,356.43167927368165,227.39999389648438,356.6249592736816C228.35926830648438,348.33151927368164,229.55834989648437,339.67793927368166,234.07490639648438,332.46491927368163C238.12181989648437,325.72213927368165,244.77672789648437,320.6700492736816,252.26102089648438,318.3890992736816C256.28950289648435,316.8248592736816,260.60562089648437,316.84155927368164,264.8809618964844,316.85810927368163L264.8809618964844,316.85810927368163C266.1840748964844,316.86314927368164,267.48278789648435,316.86816927368164,268.7684208964844,316.82845927368163C272.9540058964844,316.8316392736816,277.14059489648434,316.81356927368165,281.32723189648436,316.79548927368165L281.3318558964844,316.79546927368165C290.30694989648435,316.7567092736816,299.28225689648434,316.71794927368165,308.24827589648436,316.88847927368164C323.8863368964844,316.7183492736816,339.56437389648437,316.68833927368166,355.1924538964844,316.89840927368164C358.6856538964844,316.74796927368163,362.18301389648434,316.73674927368165,365.6807438964844,316.72551927368164C369.8570738964844,316.7121092736816,374.03393389648437,316.69870927368163,378.2048838964844,316.44825927368163C384.85983389648436,316.07804927368164,390.7552638964844,314.93762927368164,397.26028389648434,313.55706927368163C401.41711389648435,312.23651927368167,406.15351389648436,310.63585927368166,408.48172389648437,306.65420927368166C410.5601538964844,303.45286927368164,409.4609838964844,298.6708872736816,406.15351389648436,296.7701072736817C399.9682338964844,292.64840327368165,392.3340438964844,291.6379742736816,385.1395838964844,290.57748827368164C371.8297438964844,288.5866582736816,358.4299738964844,287.0660362736817,345.2600338964844,284.19483527368163C340.2138638964844,283.5145912736816,335.39756389648437,281.79387327368164,330.5512638964844,280.3232612736816C322.97701989648436,278.07233027368164,315.4327928964844,275.06107727368163,309.2175368964844,270.0890232736816C296.32086189648436,260.6359172736816,286.0652008964844,239.68640127368164,291.5909808964844,222.08909427368164Z" fill-rule="evenodd" fill="url(#master_svg3_66_3969)" fill-opacity="1" style="mix-blend-mode:passthrough"/><path d="M455.34401357177734,154.014003956C435.62577357177736,153.9953237404,415.9064535717773,153.976642493,396.19115457177736,154.090921454C396.19277157177737,154.10194921,396.19447357177734,154.11333449,396.1962125717773,154.12505724C396.19444257177736,154.11331415,396.1927485717773,154.10190663,396.19115457177736,154.090921454C389.5561755717773,154.92120272,382.83132957177736,155.331373,376.3662645717774,157.1021078C366.57371857177736,159.6731839,356.59135057177735,162.2442503,347.48828157177735,166.716106C339.05471757177736,170.36760900000002,331.27068157177735,175.449715,324.24604457177736,181.342159C312.84474417177734,190.846081,305.19058327177737,206.062393,307.78860617177736,221.098633C309.39736347177734,231.322876,316.1622190717774,240.496681,325.15535357177737,245.50876599999998C332.24991457177737,249.63047,339.77508557177737,252.974174,347.91797657177733,254.86270000000002C350.49965657177734,255.40121,357.58058557177736,257.22375,362.4968455717773,257.86397C374.09797657177734,259.34457,385.6591565717773,261.25536999999997,397.24031057177734,262.94608C405.08429757177737,264.11658,412.56858357177737,266.8277,420.1328135717773,269.10857C423.83997357177736,271.07939,428.09673357177735,272.46997,431.64401357177735,274.94099C441.39658357177734,281.07354,449.61031357177734,290.90762,450.7694335717773,302.73251C450.77355357177737,303.28729,450.7800335717774,303.84328,450.78655357177735,304.39995C450.84362357177736,309.28364999999997,450.90131357177734,314.22139000000004,449.3405535717774,318.90921000000003C448.59110357177735,321.24033,447.34205357177734,323.37122,446.45272357177737,325.63216C444.02460357177733,329.44371,441.04686357177735,332.84511,437.89928357177735,336.05644C422.3411835717774,349.1418,402.03666657177735,355.36436000000003,382.11190757177735,357.50526C387.25055657177734,358.43069,392.42605557177734,357.87445,397.5758055717773,357.32097C398.9952085717773,357.16843,400.41265857177734,357.01607,401.82683557177734,356.89502C412.81845357177735,355.1743,423.9699435717773,353.51360999999997,434.47193357177736,349.83208L435.3812135717774,349.54204C443.7148535717773,346.56081,451.82865357177735,342.53914,458.8632935717774,337.10686999999996C462.91015357177736,334.39578,466.59734357177734,331.03439000000003,469.50512357177735,327.09276C471.8770035717773,323.74573,473.2055135717774,321.69263,474.98096357177735,318.48903C477.77881357177733,313.0168,479.86583357177733,307.40178000000003,480.34685357177733,301.17188C480.93641357177734,293.74881,480.39681357177733,286.10562,477.87874357177736,279.04269999999997C474.36141357177735,268.27824,466.5673635717774,259.25449000000003,457.2045235717774,253.081932L456.86478357177737,253.051918C447.4319835717773,245.958969,436.38045357177737,241.94725,424.97911357177736,239.386314C415.3164835717773,237.46551499999998,406.3236465717773,235.536026,396.39095257177735,234.294182C384.19027757177736,233.053665,372.05952457177733,231.252922,359.92879857177735,229.42215C354.89263557177736,228.19163500000002,349.7865445717773,226.73102599999999,345.2499995717773,224.149956C345.2201235717773,224.165985,345.1902045717774,224.181915,345.16024057177736,224.197739C345.19018957177735,224.181862,345.22011557177734,224.165932,345.2499995717773,224.149956C343.15159557177736,222.28912400000002,340.73345957177736,220.098221,340.6535035717773,217.066963C340.26381657177734,213.10531600000002,342.2822645717773,209.323746,345.14009857177734,206.702679C350.39606457177734,202.100773,357.24084857177735,199.819828,364.01567457177737,198.589317C367.20324357177736,197.929054,370.4507635717773,197.508881,373.6882855717773,197.088711C374.6846845717773,196.778492,386.1538165717773,196.958652,392.3890765717773,196.978664C398.6243055717773,196.998672,404.85952757177733,197.018677,411.0897635717773,196.868618C418.20546357177733,197.002304,425.32523357177735,196.965836,432.44390357177735,196.929371C436.51133357177736,196.908539,440.5783935717774,196.887711,444.64412357177736,196.898621C446.98713357177735,196.989342,449.29241357177733,196.647739,451.59797357177735,196.306091C452.85184357177735,196.120285,454.1057935717773,195.934471,455.3659935717774,195.818233C464.08930357177735,194.467674,472.41297357177734,190.145878,478.27849357177735,183.513126C485.55294357177735,175.499804,488.36078357177735,164.535255,489.40000357177735,154.020892467C478.04902357177735,154.035513707,466.69669357177736,154.024759002,455.34401357177734,154.014003956Z" fill-rule="evenodd" fill="url(#master_svg4_66_3934)" fill-opacity="1" style="mix-blend-mode:passthrough"/><path d="M363.2704438964844,154L90.39999389648438,154L90.39999389648438,196L302.4497238964844,196C318.3979138964844,173.611755,340.15477389648436,158.5874796,363.2704438964844,154Z" fill-rule="evenodd" fill="url(#master_svg5_66_2820)" fill-opacity="1"/></g></svg>